<svg viewBox="0 0 72 72" xmlns="http://www.w3.org/2000/svg"><path d="m38.5518 28.0684a7.1281 7.1281 0 0 0 -1.37 1.26l-.02.02a.1422.1422 0 0 1 -.06-.02c-.56-.23-1.11-.55-1.74-.79-5.29-2.31-13.82-5.62-20.37-6.37-.5-2.19-.39-3.73.12-4.64.66-1.13 1.88-1.42 3.52-1.12 5.44.89 15.0799 7.9 19.92 11.66z" fill="#92d3f5"/><path d="m57.6893 31.9455a7.7964 7.7964 0 0 1 -1.98 5.2264l-.0792.0792-.0792.0792a6.3093 6.3093 0 0 1 -1.3462 1.1879 6.9 6.9 0 0 1 -3.326 1.3462 6.8107 6.8107 0 0 1 -1.267.0792 2.441 2.441 0 0 1 -.7919-.0792l-.2376.2376a9.8017 9.8017 0 0 1 -1.4254 1.1086c-.1583.0792-.2375.1584-.3959.2376a7.2618 7.2618 0 0 1 -1.8213.7126c-.1584 0-.396.0792-.5544.0792a5.9924 5.9924 0 0 1 -1.1878.0792 3.248 3.248 0 0 1 -.8711-.0792h-.7127a2.4136 2.4136 0 0 0 -1.267.6335l-.1584.1584c-.0792.0792-.0792.1584-.1584.2376a8.457 8.457 0 0 1 -3.0092 2.534c-.1583.1584-.3167.2376-.4751.396-.0792 0-.0792.0792-.1584.0792-.7127.5543-1.4254 1.1086-2.1381 1.5838a24.27 24.27 0 0 1 -3.009 1.7421 28.406 28.406 0 0 1 -10.3736 3.0884 1.968 1.968 0 0 1 -.6335.0792 3.9211 3.9211 0 0 1 -3.96-3.9595 2.693 2.693 0 0 1 .0792-.7918v-.0792a23.4008 23.4008 0 0 1 6.81-11.7992 15.7361 15.7361 0 0 1 2.1389-1.7425 5.3281 5.3281 0 0 1 .8711-.5543.4114.4114 0 0 1 .3167-.1584 22.5694 22.5694 0 0 1 2.3757-1.267 7.7943 7.7943 0 0 1 4.7513-1.5838h.6335a4.61 4.61 0 0 0 1.5046-.2376 2.5879 2.5879 0 0 0 1.1878-.871 1.39 1.39 0 0 1 .3168-.396 7.8691 7.8691 0 0 1 2.3757-1.9005 8.1727 8.1727 0 0 1 3.0883-.8711h1.3463a7.9538 7.9538 0 0 1 5.86-2.6132 5.9934 5.9934 0 0 1 1.1879.0792 8.0872 8.0872 0 0 1 6.5726 7.9192z" fill="#fcea2b"/><path d="m36.4667 46.3579c-.0792 0-.0792.0792-.1584.0792-.7127.5543-1.4254 1.1086-2.1381 1.5838a24.2967 24.2967 0 0 1 -3.0092 1.7421 16.04 16.04 0 0 1 -1.4254-1.0294 16.3978 16.3978 0 0 1 -6.1767-12.0368c-.1584-.0792-.3168-.0792-.4752-.1584l.4752-.4751a23.9027 23.9027 0 0 1 2.534-2.1381 12.9392 12.9392 0 0 1 2.6924-1.5046l.7127-.2375a5.5347 5.5347 0 0 1 .7919.6335c.4752.3959 1.03.871 1.4254 1.267a17.0177 17.0177 0 0 1 4.7514 12.2743z" fill="#3f3f3f"/><path d="m37.1 29.3322c-.5544-.2375-1.1088-.5543-1.7422-.7919-6.3351-2.7716-17.3424-6.9686-23.9942-6.4935-3.0092.2376-5.1473 1.4255-5.5432 4.1179-.7919 5.7016 6.0975 8.394 13.3036 9.5819 1.2671.2375 2.6132.3959 3.88.5543a94.6176 94.6176 0 0 0 11.324.4751l6.0976-5.86s-.6839-.3417-1.8241-.8963c-.436-.1982-.9352-.4262-1.5015-.6875z" fill="#92d3f5"/><g fill="none" stroke="#000" stroke-linecap="round" stroke-linejoin="round" stroke-width="2"><path d="m15.0017 22.1684c-.5-2.27-.41-3.76.11-4.66.65-1.06 1.87-1.35 3.52-1.12 5.45.88 15.1 7.92 19.94 11.67"/><path d="m57.67 30.66.89-.14a7.237 7.237 0 0 1 2.93-.08l2.3.32 2.45.39"/><path d="m38.3672 42.7944.95 3.0883a3.9745 3.9745 0 0 1 .1584.95v2.4549a3.4747 3.4747 0 0 1 -.7127 2.1381l-1.6629 2.1384"/><path d="m48.1866 40.102.6335 1.8213a4.355 4.355 0 0 1 .1584 1.7422l-.3959 2.6924"/><path d="m35.5164 43.27.1584 5.1473a1.7433 1.7433 0 0 1 -.0792.6335l-.5544 3.3259a3.2562 3.2562 0 0 1 -1.3462 2.1382l-1.5838 1.1878"/><path d="m44.6231 40.7355.95 2.0589a3.5229 3.5229 0 0 1 0 3.0883l-.7127 1.5046"/><path d="m52.78 29.8074 1.1086-1.1087a9.5883 9.5883 0 0 1 4.91-2.7716l6.3351-1.4254"/><path d="m23 36.3a23.4709 23.4709 0 0 0 -6.81 11.8v.08a2.6883 2.6883 0 0 0 -.08.79 3.9248 3.9248 0 0 0 3.96 3.96 1.9881 1.9881 0 0 0 .64-.08 22.0647 22.0647 0 0 0 2.29-.31"/><path d="m54.28 38.52a6.2729 6.2729 0 0 0 1.35-1.19l.08-.08.08-.08v-.08a7.6549 7.6549 0 0 0 1.98-5.22 6.8938 6.8938 0 0 0 -.1-1.21 7.7344 7.7344 0 0 0 -1.6-3.69c-.07-.1-.16-.2-.24-.3a7.8346 7.8346 0 0 0 -4.79-2.64 6.0051 6.0051 0 0 0 -1.19-.08 7.9258 7.9258 0 0 0 -5.86 2.61h-1.35a7.8857 7.8857 0 0 0 -4.07 1.5"/><path d="m40.4217 30.8384s-1.24-.55-3.26-1.49a.1421.1421 0 0 1 -.06-.02c-.56-.23-1.11-.55-1.74-.79-5.29-2.31-13.82-5.62-20.37-6.37a19.7 19.7 0 0 0 -3.63-.12c-3.01.24-5.15 1.42-5.54 4.12-.79 5.7 6.1 8.39 13.3 9.58 1.27.24 2.62.39 3.88.55a93.7575 93.7575 0 0 0 11.33.48"/></g></svg>