<svg enable-background="new 0 0 512 512" viewBox="0 0 512 512" xmlns="http://www.w3.org/2000/svg"><path d="m265.311 407.417-4.232 61.184c-.29 4.174-3.912 7.33-8.087 7.039-3.828-.262-6.792-3.318-7.045-7.039l-4.232-61.184c-.453-6.515 4.465-12.162 10.98-12.614 6.517-.446 12.162 4.472 12.616 10.98.035.531.035 1.117 0 1.634" fill="#2c3c47"/><path d="m458.116 114.218s-.964-.382-2.767-.827c-1.803-.446-4.456-.977-7.845-1.323-1.691-.177-3.56-.319-5.603-.375-2.059-.029-4.282.021-6.659.162-2.37.142-4.895.375-7.548.722-2.667.361-5.491.898-8.405 1.549-5.816 1.245-12.177 3.304-18.841 5.242-3.325.991-6.799 2.151-10.294 3.255-1.762.579-3.508 1.146-5.306 1.776-1.796.636-3.608 1.28-5.432 1.931-1.819.651-3.645 1.309-5.491 1.966-1.853.708-3.72 1.422-5.596 2.137-1.867.736-3.743 1.472-5.631 2.215-1.883.757-3.793 1.592-5.695 2.391-1.896.814-3.8 1.628-5.71 2.448-1.91.871-3.828 1.747-5.752 2.625-1.917.906-3.814 1.762-5.731 2.724l-5.738 2.894-2.843 1.45-2.859 1.542c-1.903 1.018-3.784 2.073-5.653 3.119-1.874 1.068-3.741 2.207-5.596 3.304-1.846 1.111-3.679 2.194-5.51 3.396-1.826 1.168-3.631 2.327-5.406 3.51-1.783 1.224-3.551 2.476-5.284 3.707-.877.623-1.734 1.217-2.598 1.853-.855.644-1.705 1.288-2.553 1.932-1.698 1.302-3.361 2.511-4.988 3.891-6.524 5.25-12.557 10.867-17.879 16.506-5.341 5.618-9.954 11.341-13.775 16.796-1.104 1.595-2.148 3.153-3.135 4.681-.985-1.526-2.028-3.082-3.132-4.675-3.821-5.448-8.441-11.172-13.775-16.796-5.32-5.632-11.355-11.25-17.879-16.499-1.627-1.379-3.296-2.589-4.987-3.892-.85-.643-1.705-1.288-2.555-1.931-.864-.637-1.726-1.231-2.596-1.853-1.734-1.225-3.503-2.484-5.285-3.701-1.776-1.181-3.579-2.349-5.405-3.516-1.833-1.196-3.665-2.285-5.512-3.389-1.853-1.097-3.729-2.243-5.596-3.311-1.867-1.047-3.75-2.094-5.653-3.113l-2.857-1.549-2.845-1.443-5.738-2.893c-1.917-.962-3.814-1.819-5.731-2.731-1.917-.877-3.841-1.748-5.752-2.625-1.91-.814-3.812-1.627-5.709-2.441-1.897-.8-3.814-1.634-5.695-2.391-1.89-.743-3.764-1.479-5.633-2.214-1.874-.714-3.743-1.429-5.589-2.137-1.846-.658-3.679-1.316-5.496-1.966-1.826-.651-3.638-1.295-5.427-1.932-1.796-.63-3.551-1.202-5.306-1.776-3.494-1.104-6.975-2.264-10.301-3.254-6.664-1.939-13.017-3.99-18.832-5.25-2.922-.65-5.745-1.181-8.412-1.556-2.653-.346-5.171-.58-7.55-.721-2.37-.148-4.598-.192-6.657-.163-2.045.057-3.912.199-5.603.368-3.382.354-6.035.884-7.838 1.33-1.812.439-2.774.821-2.774.821-16.577 6.601-31.03 19.102-39.711 36.279-18.882 37.369-3.892 82.967 33.471 101.843l6.241 3.156s.793.396 2.264.87c1.479.481 3.636 1.061 6.38 1.472 1.373.206 2.893.368 4.543.481 1.634.142 3.403.212 5.292.206 1.888-.015 3.905-.106 6.035-.305 2.121-.183 4.315-.402 6.643-.792 2.313-.354 4.783-.934 7.258-1.415 2.498-.503 5.087-1.019 7.74-1.549 2.674-.545 5.342-.97 8.137-1.479 1.385-.24 2.815-.544 4.216-.771 1.408-.233 2.822-.466 4.253-.707 1.442-.24 2.893-.474 4.358-.721 1.442-.206 2.893-.41 4.358-.616 1.472-.219 2.957-.439 4.443-.665 1.492-.219 2.943-.375 4.436-.573 1.494-.191 2.993-.375 4.5-.566 1.479-.149 2.966-.304 4.451-.453 1.485-.155 3.028-.354 4.506-.474l4.456-.375 2.251-.184 2.194-.121c1.479-.085 2.957-.176 4.436-.269 1.472-.078 2.893-.106 4.358-.162 1.458-.057 2.929-.113 4.323-.099 5.779-.127 11.262.071 16.632.403 1.33.106 2.653.206 3.962.304 1.289.149 2.568.29 3.835.432 1.302.127 2.505.332 3.757.503.624.085 1.245.176 1.86.262.601.113 1.204.219 1.798.326 4.79.877 9.36 1.903 13.549 3.254 2.1.658 4.152 1.344 6.09 2.108.976.361 1.947.743 2.886 1.132.941.375 1.862.757 2.76 1.175 3.608 1.577 6.785 3.303 9.678 4.839 1.387.722 2.774 1.521 3.905 2.143 1.273.743 2.406 1.451 3.277 1.924 1.584.744 2.427 1.146 2.427 1.146 3.036 1.421 6.476 2.019 9.91 1.643 3.264.357 6.662-.134 9.848-1.642 0 0 .841-.403 2.427-1.153.864-.467 2.002-1.175 3.275-1.924 1.133-.616 2.511-1.415 3.905-2.137 2.888-1.536 6.071-3.262 9.68-4.839 3.608-1.578 7.527-3.106 11.744-4.415 4.189-1.345 8.759-2.371 13.549-3.247.594-.106 1.188-.212 1.789-.326.617-.086 1.238-.17 1.869-.262 1.252-.163 2.454-.368 3.748-.503 1.268-.142 2.548-.283 3.834-.424 1.316-.099 2.632-.206 3.969-.305 5.37-.339 10.854-.53 16.627-.403 1.394-.014 2.872.042 4.323.099 1.463.057 2.886.085 4.358.162 1.479.092 2.957.184 4.436.269l2.194.12 2.256.191 4.451.368c1.479.12 3.021.326 4.506.474 1.485.155 2.971.304 4.449.453 1.508.191 3.007.383 4.5.567 1.494.198 2.943.36 4.436.58 1.487.219 2.973.439 4.444.658 1.465.206 2.914.418 4.358.623 1.465.241 2.914.481 4.358.722 1.428.233 2.845.466 4.253.7 1.401.226 2.829.53 4.216.771 2.795.51 5.462.94 8.128 1.479 2.66.53 5.242 1.047 7.747 1.549 2.47.488 4.945 1.061 7.26 1.415 2.32.383 4.52.609 6.643.786 2.13.198 4.145.289 6.035.297 1.89.014 3.658-.064 5.285-.206 1.655-.113 3.176-.276 4.548-.481 2.746-.417 4.904-.991 6.375-1.472 1.479-.474 2.264-.871 2.264-.871l6.36-3.212c15.918-8.072 29.07-21.769 36.167-39.661 15.428-38.92-3.61-82.975-42.529-98.405z" fill="#d4dde3"/><path d="m277.095 139.062c-13.74-8.419-30.939-8.419-44.679 0-49.17 30.125-81.976 84.347-81.976 146.237 0 62.202 33.131 116.657 82.718 146.69 13.252 8.023 29.949 8.023 43.192 0 49.588-30.033 82.72-84.488 82.72-146.69 0-61.89-32.806-116.112-81.975-146.237" fill="#ffd733"/><path d="m342.169 359.562c-8.742 18.152-20.584 34.525-34.849 48.434h-105.129c-14.264-13.909-26.107-30.282-34.85-48.434zm-191.731-74.26c0 6.818.421 13.535 1.195 20.145h206.24c.774-6.61 1.195-13.327 1.195-20.145 0-9.637-.797-19.087-2.325-28.289h-203.98c-1.528 9.203-2.325 18.653-2.325 28.289zm20.768-81.804h167.1c-9.405-17.281-21.686-32.768-36.218-45.805 4.082-7.807 6.402-17.01 6.402-27.291 0-15.702-12.073-29.991-24.771-40.684.112-.185.22-.37.336-.556.969-1.529 1.988-3.092 3.119-4.641 1.104-1.564 2.308-3.113 3.531-4.648 4.924-6.127 10.541-11.815 14.899-15.855 2.18-2.023 4.033-3.644 5.329-4.733 1.301-1.104 2.002-1.642 2.002-1.642.629-.495 1.273-1.096 1.81-1.733 4.239-5.016 3.615-12.515-1.401-16.753-5.009-4.246-12.514-3.616-16.753 1.401l-.34.403s-.791.927-2.009 2.49c-1.232 1.564-2.921 3.799-4.854 6.523-3.869 5.448-8.709 12.904-12.79 20.906-1.012 2.01-1.995 4.033-2.895 6.077-.617 1.375-1.176 2.756-1.711 4.13-11.37-6.362-25.462-5.958-36.484 1.215-.672-1.768-1.387-3.565-2.188-5.347-.891-2.044-1.874-4.061-2.886-6.07-4.088-8.002-8.921-15.465-12.792-20.913-1.938-2.724-3.622-4.953-4.852-6.523-1.225-1.557-2.011-2.491-2.011-2.491l-.382-.453c-.523-.609-1.111-1.175-1.769-1.684-5.199-4.012-12.664-3.049-16.682 2.143-4.012 5.2-3.05 12.664 2.144 16.676 0 0 .706.545 2.009 1.641 1.289 1.09 3.149 2.71 5.327 4.734 4.36 4.039 9.97 9.728 14.901 15.861 1.216 1.529 2.418 3.085 3.529 4.641 1.126 1.557 2.152 3.12 3.114 4.648.415.66.798 1.313 1.182 1.957-12.077 10.525-23.128 24.255-23.128 39.279 0 10.282 2.32 19.486 6.402 27.293-14.532 13.037-26.814 28.524-36.22 45.804z" fill="#2c3c47"/></svg>